<svg width="33" height="30" viewBox="0 0 33 30" fill="none" xmlns="http://www.w3.org/2000/svg">
<path d="M12.8535 18.3138C11.8866 17.4347 11.3435 16.2425 11.3435 14.9994C11.3435 13.7563 11.8866 12.5641 12.8535 11.685M20.1465 11.685C21.1134 12.5641 21.6565 13.7563 21.6565 14.9994C21.6565 16.2425 21.1134 17.4347 20.1465 18.3138M9.93713 20.9663C9.07527 20.1828 8.39161 19.2526 7.92517 18.2289C7.45874 17.2052 7.21867 16.108 7.21867 15C7.21867 13.892 7.45874 12.7948 7.92517 11.7711C8.39161 10.7474 9.07527 9.81725 9.93713 9.03376M23.0629 9.03376C23.9247 9.81725 24.6084 10.7474 25.0748 11.7711C25.5413 12.7948 25.7813 13.892 25.7813 15C25.7813 16.108 25.5413 17.2052 25.0748 18.2289C24.6084 19.2526 23.9247 20.1828 23.0629 20.9663M7.02075 23.6175C1.78475 18.8575 1.78475 11.1425 7.02075 6.38126M25.9792 6.38126C31.2152 11.1413 31.2152 18.8575 25.9792 23.6188M16.5 15H16.511V15.0088H16.5V15ZM17.0156 15C17.0156 15.1243 16.9613 15.2436 16.8646 15.3315C16.7679 15.4194 16.6368 15.4688 16.5 15.4688C16.3632 15.4688 16.2321 15.4194 16.1354 15.3315C16.0387 15.2436 15.9844 15.1243 15.9844 15C15.9844 14.8757 16.0387 14.7565 16.1354 14.6685C16.2321 14.5806 16.3632 14.5313 16.5 14.5313C16.6368 14.5313 16.7679 14.5806 16.8646 14.6685C16.9613 14.7565 17.0156 14.8757 17.0156 15V15Z" stroke="#1B5FAC" stroke-width="1.5" stroke-linecap="round" stroke-linejoin="round"/>
</svg>
